<svg width="32" height="32" viewBox="0 0 32 32" fill="none" xmlns="http://www.w3.org/2000/svg">
<path d="M32 7.5625V2.875C32 1.32419 30.7383 0.0625 29.1875 0.0625H2.8125C1.26169 0.0625 0 1.32419 0 2.875V7.5625H32ZM21.625 3.8125H27.25C27.7677 3.8125 28.1875 4.23225 28.1875 4.75C28.1875 5.26775 27.7677 5.6875 27.25 5.6875H21.625C21.1073 5.6875 20.6875 5.26775 20.6875 4.75C20.6875 4.23225 21.1073 3.8125 21.625 3.8125ZM12.25 3.8125C12.7677 3.8125 13.1875 4.23225 13.1875 4.75C13.1875 5.26775 12.7677 5.6875 12.25 5.6875C11.7323 5.6875 11.3125 5.26775 11.3125 4.75C11.3125 4.23225 11.7323 3.8125 12.25 3.8125ZM8.5 3.8125C9.01775 3.8125 9.4375 4.23225 9.4375 4.75C9.4375 5.26775 9.01775 5.6875 8.5 5.6875C7.98225 5.6875 7.5625 5.26775 7.5625 4.75C7.5625 4.23225 7.98225 3.8125 8.5 3.8125ZM4.75 3.8125C5.26775 3.8125 5.6875 4.23225 5.6875 4.75C5.6875 5.26775 5.26775 5.6875 4.75 5.6875C4.23225 5.6875 3.8125 5.26775 3.8125 4.75C3.8125 4.23225 4.23225 3.8125 4.75 3.8125Z" fill="#46007E"/>
<path d="M18.8125 22.5625H26.3125V26.3125H18.8125V22.5625Z" fill="#7C00ED"/>
<path d="M5.6875 22.5625H13.1875V26.3125H5.6875V22.5625Z" fill="#7C00ED"/>
<path d="M0 9.4375V29.125C0 30.6758 1.26169 31.9375 2.8125 31.9375H29.1875C30.7383 31.9375 32 30.6758 32 29.125V9.4375H0ZM15.0625 27.25C15.0625 27.7677 14.6427 28.1875 14.125 28.1875H4.75C4.23225 28.1875 3.8125 27.7677 3.8125 27.25V21.625C3.8125 21.1073 4.23225 20.6875 4.75 20.6875H14.125C14.6427 20.6875 15.0625 21.1073 15.0625 21.625V27.25ZM28.1875 27.25C28.1875 27.7677 27.7677 28.1875 27.25 28.1875H17.875C17.3573 28.1875 16.9375 27.7677 16.9375 27.25V21.625C16.9375 21.1073 17.3573 20.6875 17.875 20.6875H27.25C27.7677 20.6875 28.1875 21.1073 28.1875 21.625V27.25ZM28.1875 17.875C28.1875 18.3927 27.7677 18.8125 27.25 18.8125H4.75C4.23225 18.8125 3.8125 18.3927 3.8125 17.875V12.25C3.8125 11.7322 4.23225 11.3125 4.75 11.3125H27.25C27.7677 11.3125 28.1875 11.7322 28.1875 12.25V17.875Z" fill="#7C00ED"/>
<path d="M5.6875 13.1875H26.3125V16.9375H5.6875V13.1875Z" fill="#7C00ED"/>
</svg>
