<svg width="32" height="32" viewBox="0 0 32 32" fill="none" xmlns="http://www.w3.org/2000/svg">
<g clip-path="url(#clip0)">
<path d="M7.59229 10.3822C7.71879 11.8955 8.00928 13.9685 8.6666 16.145C10.0626 20.7673 12.5287 24.054 16.0003 25.9217C19.4719 24.054 21.938 20.7673 23.3339 16.145C23.9912 13.9687 24.2817 11.8957 24.4083 10.3822L16.0003 6.17822L7.59229 10.3822Z" fill="#7C00ED"/>
<path d="M30.116 7.47858C30.0985 7.14145 29.901 6.83977 29.5991 6.68883L16.4194 0.0989531C16.1555 -0.0329844 15.8448 -0.0329844 15.5809 0.0989531L2.40121 6.68883C2.09928 6.83977 1.90178 7.14145 1.88428 7.47858C1.87428 7.67045 1.65753 12.2391 3.21384 17.5433C4.13471 20.6816 5.48921 23.4227 7.23971 25.6904C9.44565 28.548 12.2809 30.6502 15.6667 31.9387C15.7741 31.9795 15.8871 32 16.0001 32C16.1132 32 16.2261 31.9795 16.3336 31.9387C19.7194 30.6503 22.5546 28.548 24.7606 25.6904C26.5111 23.4227 27.8656 20.6816 28.7865 17.5433C30.3428 12.2391 30.126 7.67045 30.116 7.47858ZM16.4157 27.817C16.2847 27.8817 16.1424 27.9141 16.0001 27.9141C15.8579 27.9141 15.7155 27.8817 15.5847 27.817C11.4102 25.753 8.47865 22.0083 6.87165 16.6872C6.0679 14.0258 5.77771 11.5179 5.67584 9.88276C5.6524 9.50727 5.85578 9.1542 6.19228 8.98595L15.581 4.29164C15.8449 4.15977 16.1555 4.1597 16.4195 4.29164L25.8082 8.98595C26.1447 9.15414 26.3481 9.50733 26.3246 9.88283C26.2227 11.5181 25.9325 14.026 25.1288 16.6872C23.5217 22.0083 20.5902 25.7529 16.4157 27.817Z" fill="#46007E"/>
</g>
<defs>
<clipPath id="clip0">
<rect width="32" height="32" fill="white"/>
</clipPath>
</defs>
</svg>
