<svg width="32" height="32" viewBox="0 0 32 32" fill="none" xmlns="http://www.w3.org/2000/svg">
<path d="M21.3398 2.42497H18.9984C18.7062 2.41593 18.4552 2.21505 18.3822 1.93208C18.1604 0.779397 17.1319 -0.0399309 15.9588 0.00150331C14.7786 -0.0191745 13.7551 0.81344 13.5353 1.9732C13.4594 2.24838 13.2044 2.43535 12.9191 2.42505H10.6599V6.53269H21.3398V2.42497Z" fill="#46007E"/>
<path d="M27.9121 30.1104V6.5737C27.9147 5.6436 27.1626 4.88756 26.2325 4.88504C26.1899 4.88496 26.1473 4.88646 26.1048 4.88952H22.5722V6.98443C22.5722 7.31307 22.3668 7.76492 22.0382 7.76492H9.92066C9.59202 7.76492 9.42778 7.31307 9.42778 6.98443V4.8896H5.89518C4.96759 4.82152 4.16037 5.51835 4.09236 6.44602C4.08922 6.48855 4.08772 6.53117 4.08788 6.57378V30.1105C4.06492 31.1311 4.87371 31.9771 5.89432 32C5.89463 32 5.89494 32 5.89526 32H26.1048C27.1254 31.9776 27.9346 31.132 27.9122 30.1114C27.9121 30.1111 27.9121 30.1108 27.9121 30.1104ZM12.6728 24.6884L9.46882 27.687C9.36637 27.8095 9.21754 27.8839 9.05809 27.8923C8.88646 27.8856 8.72426 27.8118 8.60625 27.687L6.92215 25.9618C6.69831 25.7111 6.71663 25.3273 6.96319 25.0992C7.20275 24.8643 7.5862 24.8643 7.82576 25.0992L9.05801 26.4136L11.8512 23.7847C12.1313 23.5914 12.5151 23.6617 12.7083 23.9418C12.866 24.1703 12.8514 24.4759 12.6728 24.6884ZM12.6728 18.1161L9.46882 21.1147C9.36637 21.2373 9.21754 21.3117 9.05809 21.3201C8.88646 21.3133 8.72426 21.2396 8.60625 21.1147L6.92215 19.3895C6.69831 19.1389 6.71663 18.7551 6.96319 18.527C7.20275 18.2921 7.5862 18.2921 7.82576 18.527L9.05801 19.8414L11.8512 17.2125C12.1313 17.0192 12.5151 17.0895 12.7083 17.3695C12.866 17.598 12.8514 17.9037 12.6728 18.1161ZM12.6728 11.5439L9.46882 14.5425C9.36637 14.6651 9.21754 14.7395 9.05809 14.7479C8.88646 14.7411 8.72426 14.6674 8.60625 14.5425L6.92215 12.8173C6.69831 12.5666 6.71663 12.1829 6.96319 11.9547C7.20275 11.7199 7.5862 11.7199 7.82576 11.9547L9.05801 13.2691L11.8512 10.6402C12.1313 10.447 12.5151 10.5173 12.7083 10.7973C12.866 11.0258 12.8514 11.3315 12.6728 11.5439ZM24.626 27.0708H15.1784C14.8381 27.0708 14.5622 26.7949 14.5622 26.4546C14.5622 26.1144 14.8381 25.8385 15.1784 25.8385H24.6259C24.9662 25.8385 25.2421 26.1144 25.2421 26.4546C25.2421 26.7949 24.9663 27.0708 24.626 27.0708ZM24.626 20.4986H15.1784C14.8381 20.4986 14.5622 20.2227 14.5622 19.8824C14.5622 19.5421 14.8381 19.2662 15.1784 19.2662H24.6259C24.9662 19.2662 25.2421 19.5421 25.2421 19.8824C25.2421 20.2227 24.9663 20.4986 24.626 20.4986ZM24.626 13.9263H15.1784C14.8381 13.9263 14.5622 13.6505 14.5622 13.3102C14.5622 12.9699 14.8381 12.694 15.1784 12.694H24.6259C24.9662 12.694 25.2421 12.9699 25.2421 13.3102C25.2421 13.6505 24.9663 13.9263 24.626 13.9263Z" fill="#6B00C4"/>
</svg>
