<svg width="32" height="32" viewBox="0 0 32 32" fill="none" xmlns="http://www.w3.org/2000/svg">
<path d="M21.8667 5.8667H8V7.4667H21.8667V5.8667Z" fill="#7C00ED"/>
<path d="M13.3333 11.7332H10.1333V12.7998H13.3333V11.7332Z" fill="#7C00ED"/>
<path d="M23.1168 15.3866C23.0021 15.2741 22.9392 15.1221 22.9392 14.96C22.9392 14.7989 23.0021 14.6474 23.1158 14.5333L23.5286 14.1205L19.9995 13.0618L20.6747 15.313L21.0581 16.5908L21.4432 16.2058C21.5786 16.0703 21.7568 16.002 21.9355 16.002C22.1136 16.002 22.2917 16.0698 22.4277 16.2058L23.6 17.3786L24.3541 16.6239L23.1168 15.3866Z" fill="#7C00ED"/>
<path d="M8.00049 8.5332V14.9332H19.4469C19.2821 14.3833 19.1167 13.833 18.9519 13.2831C18.8901 13.0778 18.8287 12.8724 18.7669 12.6676C18.6885 12.4058 18.5994 12.137 18.8111 11.9066C18.8164 11.9007 18.8218 11.8954 18.8271 11.89C19.0949 11.6207 19.4612 11.7871 19.7717 11.8799C20.1162 11.9833 20.4602 12.0863 20.8042 12.1898C21.1584 12.2959 21.5131 12.4026 21.8672 12.5087V8.53327H8.00049V8.5332ZM14.3999 13.3332C14.3999 13.6276 14.161 13.8665 13.8666 13.8665H9.59993C9.30555 13.8665 9.06661 13.6276 9.06661 13.3332V11.1999C9.06661 10.9055 9.30555 10.6666 9.59993 10.6666H13.8666C14.161 10.6666 14.3999 10.9055 14.3999 11.1999V13.3332Z" fill="#7C00ED"/>
<path d="M3.2002 3.73315V19.7332H28.8002V3.73315H3.2002ZM25.485 17.0015L23.9768 18.5103C23.8765 18.6105 23.741 18.6665 23.5997 18.6665C23.4584 18.6665 23.3224 18.6105 23.2226 18.5103L21.9352 17.2223L21.1811 17.977C21.0478 18.1098 20.8547 18.162 20.6733 18.1172C20.4914 18.0713 20.3469 17.9332 20.2931 17.753L19.7671 15.9998H7.46738C7.17301 15.9998 6.93407 15.7609 6.93407 15.4665V7.99984V5.33315C6.93407 5.03878 7.17301 4.79984 7.46738 4.79984H22.4007C22.6951 4.79984 22.934 5.03878 22.934 5.33315V7.99984V12.8287L24.6908 13.3556C24.8706 13.41 25.0087 13.554 25.0546 13.7358C25.1004 13.9177 25.0471 14.1108 24.9143 14.2436L24.1981 14.9598L25.4855 16.2473C25.6935 16.4558 25.6935 16.7935 25.485 17.0015Z" fill="#7C00ED"/>
<path d="M29.8661 0.533203H2.13387C0.957312 0.533203 0 1.49058 0 2.66708V19.7332H2.13331V3.19989C2.13331 2.90552 2.37225 2.66658 2.66663 2.66658H29.3333C29.6277 2.66658 29.8666 2.90552 29.8666 3.19989V19.7332H32V2.66708C32 1.49058 31.0427 0.533203 29.8661 0.533203Z" fill="#7C00ED"/>
</svg>
