<svg width="38" height="38" viewBox="0 0 38 38" fill="none" xmlns="http://www.w3.org/2000/svg">
<path d="M24.8667 11.8667H11V13.4667H24.8667V11.8667Z" fill="#7C00ED"/>
<path d="M16.3333 17.7332H13.1333V18.7998H16.3333V17.7332Z" fill="#7C00ED"/>
<path d="M26.1168 21.3866C26.0021 21.2741 25.9392 21.1221 25.9392 20.96C25.9392 20.7989 26.0021 20.6474 26.1158 20.5333L26.5286 20.1205L22.9995 19.0618L23.6747 21.313L24.0581 22.5908L24.4432 22.2058C24.5786 22.0703 24.7568 22.002 24.9355 22.002C25.1136 22.002 25.2917 22.0698 25.4277 22.2058L26.6 23.3786L27.3541 22.6239L26.1168 21.3866Z" fill="#7C00ED"/>
<path d="M11.0005 14.5332V20.9332H22.4469C22.2821 20.3833 22.1167 19.833 21.9519 19.2831C21.8901 19.0778 21.8287 18.8724 21.7669 18.6676C21.6885 18.4058 21.5994 18.137 21.8111 17.9066C21.8164 17.9007 21.8218 17.8954 21.8271 17.89C22.0949 17.6207 22.4612 17.7871 22.7717 17.8799C23.1162 17.9833 23.4602 18.0863 23.8042 18.1898C24.1584 18.2959 24.5131 18.4026 24.8672 18.5087V14.5333H11.0005V14.5332ZM17.3999 19.3332C17.3999 19.6276 17.161 19.8665 16.8666 19.8665H12.5999C12.3056 19.8665 12.0666 19.6276 12.0666 19.3332V17.1999C12.0666 16.9055 12.3056 16.6666 12.5999 16.6666H16.8666C17.161 16.6666 17.3999 16.9055 17.3999 17.1999V19.3332Z" fill="#7C00ED"/>
<path d="M6.2002 9.73315V25.7332H31.8002V9.73315H6.2002ZM28.485 23.0015L26.9768 24.5103C26.8765 24.6105 26.741 24.6665 26.5997 24.6665C26.4584 24.6665 26.3224 24.6105 26.2226 24.5103L24.9352 23.2223L24.1811 23.977C24.0478 24.1098 23.8547 24.162 23.6733 24.1172C23.4914 24.0713 23.3469 23.9332 23.2931 23.753L22.7671 21.9998H10.4674C10.173 21.9998 9.93407 21.7609 9.93407 21.4665V13.9998V11.3332C9.93407 11.0388 10.173 10.7998 10.4674 10.7998H25.4007C25.6951 10.7998 25.934 11.0388 25.934 11.3332V13.9998V18.8287L27.6908 19.3556C27.8706 19.41 28.0087 19.554 28.0546 19.7358C28.1004 19.9177 28.0471 20.1108 27.9143 20.2436L27.1981 20.9598L28.4855 22.2473C28.6935 22.4558 28.6935 22.7935 28.485 23.0015Z" fill="#7C00ED"/>
<path d="M32.8661 6.5332H5.13387C3.95731 6.5332 3 7.49058 3 8.66708V25.7332H5.13331V9.19989C5.13331 8.90552 5.37225 8.66658 5.66663 8.66658H32.3333C32.6277 8.66658 32.8666 8.90552 32.8666 9.19989V25.7332H35V8.66708C35 7.49058 34.0427 6.5332 32.8661 6.5332Z" fill="#7C00ED"/>
<path fill-rule="evenodd" clip-rule="evenodd" d="M35 26.5715H3V29.143C3 30.2475 3.89543 31.143 5 31.143H33C34.1046 31.143 35 30.2475 35 29.143V26.5715ZM19 30.0001C19.6312 30.0001 20.1429 29.4884 20.1429 28.8572C20.1429 28.2261 19.6312 27.7144 19 27.7144C18.3688 27.7144 17.8571 28.2261 17.8571 28.8572C17.8571 29.4884 18.3688 30.0001 19 30.0001Z" fill="#7C00ED"/>
</svg>
