<svg width="32" height="34" viewBox="0 0 32 34" fill="none" xmlns="http://www.w3.org/2000/svg">
<path d="M1.60596 0.817627V23.3895H6.91558V23.3598H15.1171L21.2622 29.3035V15.7747H10.8978C10.0326 15.7747 9.32743 15.0695 9.32743 14.1806C9.32743 13.3095 10.0326 12.6043 10.9037 12.6043H21.6119C23.5496 12.6043 25.1259 11.028 25.1259 9.09022V8.90059C25.1259 7.0517 23.6208 5.55244 21.7778 5.55244H6.70818V7.33022H21.7837C22.6489 7.33022 23.3541 8.0354 23.3541 8.90059V9.09022C23.3541 10.0502 22.5778 10.8265 21.6178 10.8265H10.9037C9.05484 10.8265 7.54966 12.3317 7.54966 14.2043C7.54966 16.0532 9.05484 17.5524 10.8978 17.5524H19.4845V25.1139L15.8282 21.5821H5.14373V21.6117H3.37781V2.5954H28.1482V21.5761H24.5096V23.3539H29.9259V0.817627H1.60596Z" fill="#7C00ED"/>
</svg>
