<svg width="36" height="32" viewBox="0 0 36 32" fill="none" xmlns="http://www.w3.org/2000/svg">
<path d="M35.6277 15.2805C35.1414 14.4963 34.282 14.0276 33.3289 14.0276H12.1062C11.0542 14.0276 10.0974 14.6206 9.66797 15.5388L4.05469 27.3081C4.2666 28.1699 5.07153 28.8137 6.03027 28.8137H28.6096C29.575 28.8137 30.4573 28.2678 30.8884 27.4041L35.7402 17.6794C36.1233 16.9099 36.0808 16.0132 35.6277 15.2805Z" fill="#7C00ED"/>
<path d="M8.52515 13.7285C8.9541 12.8105 9.91114 12.2173 10.9634 12.2173H30.948V9.66113C30.948 8.60742 30.0591 7.75 28.9666 7.75H17.3137C17.2966 7.75 17.2849 7.74561 17.2805 7.74243L15.1948 4.82617C14.8254 4.30884 14.2153 4 13.5635 4H5.98194C4.88892 4 4 4.85742 4 5.91113V23.2158L8.52515 13.7285Z" fill="#46007E"/>
</svg>
