<svg width="32" height="21" viewBox="0 0 32 21" fill="none" xmlns="http://www.w3.org/2000/svg">
<path d="M28.625 0H3.375C1.514 0 0 1.514 0 3.375V17.625C0 19.486 1.514 21 3.375 21H28.625C30.4859 21 32 19.486 32 17.625V3.375C32 1.514 30.4859 0 28.625 0ZM20.5 5H21.5C22.3284 5 23 5.67156 23 6.5C23 7.32844 22.3284 8 21.5 8H20.5C19.6716 8 19 7.32844 19 6.5C19 5.67156 19.6716 5 20.5 5ZM20.5 10.5C20.5 11.3284 19.8284 12 19 12H18C17.1716 12 16.5 11.3284 16.5 10.5C16.5 9.67156 17.1716 9 18 9H19C19.8284 9 20.5 9.67156 20.5 10.5ZM15.5 5H16.5C17.3284 5 18 5.67156 18 6.5C18 7.32844 17.3284 8 16.5 8H15.5C14.6716 8 14 7.32844 14 6.5C14 5.67156 14.6716 5 15.5 5ZM15.5 10.5C15.5 11.3284 14.8284 12 14 12H13C12.1716 12 11.5 11.3284 11.5 10.5C11.5 9.67156 12.1716 9 13 9H14C14.8284 9 15.5 9.67156 15.5 10.5ZM10.5 5H11.5C12.3284 5 13 5.67156 13 6.5C13 7.32844 12.3284 8 11.5 8H10.5C9.67156 8 9 7.32844 9 6.5C9 5.67156 9.67156 5 10.5 5ZM5.5 5H6.5C7.32844 5 8 5.67156 8 6.5C8 7.32844 7.32844 8 6.5 8H5.5C4.67156 8 4 7.32844 4 6.5C4 5.67156 4.67156 5 5.5 5ZM7.5 16H5.5C4.67156 16 4 15.3284 4 14.5C4 13.6716 4.67156 13 5.5 13H7.5C8.32844 13 9 13.6716 9 14.5C9 15.3284 8.32844 16 7.5 16ZM8.5 12H7.5C6.67156 12 6 11.3284 6 10.5C6 9.67156 6.67156 9 7.5 9H8.5C9.32844 9 10 9.67156 10 10.5C10 11.3284 9.32844 12 8.5 12ZM20.5 16H11.5C10.6716 16 10 15.3284 10 14.5C10 13.6716 10.6716 13 11.5 13H20.5C21.3284 13 22 13.6716 22 14.5C22 15.3284 21.3284 16 20.5 16ZM22 10.5C22 9.67156 22.6716 9 23.5 9H24.5C25.3284 9 26 9.67156 26 10.5C26 11.3284 25.3284 12 24.5 12H23.5C22.6716 12 22 11.3284 22 10.5ZM26.5 16H24.5C23.6716 16 23 15.3284 23 14.5C23 13.6716 23.6716 13 24.5 13H26.5C27.3284 13 28 13.6716 28 14.5C28 15.3284 27.3284 16 26.5 16ZM26.5 8H25.5C24.6716 8 24 7.32844 24 6.5C24 5.67156 24.6716 5 25.5 5H26.5C27.3284 5 28 5.67156 28 6.5C28 7.32844 27.3284 8 26.5 8Z" fill="#7C00ED"/>
</svg>
