<svg width="34" height="26" viewBox="0 0 34 26" fill="none" xmlns="http://www.w3.org/2000/svg">
<path d="M33.9726 18.9096C33.1974 15.9005 31.3654 13.879 28.7123 13.0004C29.8034 12.0701 30.4926 10.6861 30.4926 9.14135C30.4926 6.33893 28.2127 4.06483 25.416 4.06483C22.6194 4.06483 20.3395 6.34467 20.3395 9.14135C20.3395 10.6861 21.0344 12.0701 22.1255 13.0004C20.6898 13.4771 19.4896 14.2868 18.5708 15.4066C17.5026 14.4476 16.2163 13.7527 14.7404 13.3163C16.5551 12.0816 17.7496 9.99701 17.7496 7.64251C17.7496 3.8581 14.6715 0.780029 10.8871 0.780029C7.10268 0.780029 4.02461 3.8581 4.02461 7.64251C4.02461 9.99126 5.21334 12.0701 7.02228 13.3048C3.47906 14.3557 1.04991 16.9629 0.0277129 20.9023C-0.0526844 21.2124 0.0449402 21.5398 0.280389 21.7522C0.435441 21.8958 4.15669 25.2151 10.8814 25.2151C12.0586 25.2151 13.1152 25.0772 14.0513 24.9566C15.5674 24.7614 17.3017 24.1699 18.3411 23.676C19.9375 22.9123 20.9482 22.1772 21.3043 21.8958C22.4528 22.2289 23.8253 22.4701 25.4103 22.4701C26.2545 22.4701 27.0986 22.4012 27.9084 22.2633L27.6212 20.5635C26.9034 20.6841 26.1568 20.7473 25.4046 20.7473C23.877 20.7473 22.5734 20.4946 21.511 20.1558C21.0861 18.8235 20.4946 17.6577 19.7365 16.6757C20.954 15.0448 22.8491 14.2121 25.4046 14.2121C28.8961 14.2121 31.1587 15.7512 32.1407 18.789C31.8019 19.0302 31.2563 19.369 30.5155 19.6964L31.2161 21.2699C32.8069 20.5578 33.674 19.7768 33.7085 19.7481C33.9554 19.5471 34.053 19.2197 33.9726 18.9096ZM5.75315 7.64826C5.75315 4.81712 8.05596 2.50857 10.8928 2.50857C13.724 2.50857 16.0325 4.81138 16.0325 7.64826C16.0325 10.4851 13.7297 12.7879 10.8928 12.7879C8.05596 12.7879 5.75315 10.4851 5.75315 7.64826ZM19.9203 20.7932C19.771 20.8966 19.57 21.0287 19.3518 21.1722C18.9039 21.4536 18.3296 21.7867 17.606 22.1313C16.7216 22.5562 15.1596 23.0903 13.8388 23.2626C12.9545 23.3774 11.961 23.5038 10.8928 23.5038C6.05751 23.5038 2.92202 21.58 1.85388 20.8047C3.12301 16.624 6.16088 14.5107 10.8928 14.5107C13.7757 14.5107 16.021 15.3032 17.6347 16.8595C18.0884 17.3017 18.4904 17.807 18.8464 18.3698C19.0072 18.6282 19.1565 18.8981 19.3001 19.1795C19.5298 19.6791 19.748 20.2132 19.9203 20.7932ZM22.0623 9.14135C22.0623 7.29221 23.5669 5.78763 25.416 5.78763C27.2652 5.78763 28.7698 7.29221 28.7698 9.14135C28.7698 10.9905 27.2652 12.5008 25.416 12.5008C23.5669 12.5008 22.0623 10.9962 22.0623 9.14135Z" fill="#7C00ED"/>
</svg>
