<svg width="38" height="38" viewBox="0 0 38 38" fill="none" xmlns="http://www.w3.org/2000/svg">
<g clip-path="url(#clip0)">
<g clip-path="url(#clip1)">
<path d="M22.0205 20.2918L25.2207 20.927C25.2539 22.4967 26.5533 23.7423 28.123 23.7091C29.6927 23.676 30.9383 22.3766 30.9052 20.8069C30.872 19.2372 29.5726 17.9915 28.0029 18.0247C26.9005 18.048 25.911 18.7066 25.4641 19.7146L22.1809 19.063C22.1775 17.8615 21.7098 16.7079 20.8758 15.8431L25.1254 9.83992C26.9178 10.6922 29.0617 9.93004 29.9139 8.13762C30.7662 6.34521 30.004 4.20131 28.2116 3.34904C26.4192 2.49676 24.2753 3.25893 23.423 5.05134C22.7725 6.41963 23.0498 8.0489 24.1167 9.12475L19.9082 15.0699C17.9727 13.9075 15.4826 14.2981 13.996 15.9973L8.47103 11.7065C9.19625 10.3105 8.65257 8.59088 7.25662 7.86566C5.86066 7.14044 4.14105 7.68413 3.41583 9.08008C2.69061 10.476 3.23429 12.1957 4.63024 12.9209C5.61111 13.4305 6.79825 13.3266 7.67564 12.6544L13.3072 17.0279C12.3715 18.9396 12.8484 21.2424 14.4665 22.6252L11.044 27.4641C9.23211 26.3645 6.87183 26.9419 5.77225 28.7539C4.67267 30.5658 5.25013 32.9261 7.0621 34.0257C8.87399 35.1252 11.2343 34.5478 12.3338 32.7358C13.1884 31.3277 13.049 29.5312 11.9875 28.2717L15.5023 23.3009C16.7048 23.8727 18.0942 23.9039 19.3211 23.3866L23.4915 29.5473C22.265 30.8441 22.3219 32.8897 23.6187 34.1162C24.9155 35.3428 26.9611 35.2858 28.1877 33.989C29.4142 32.6922 29.3573 30.6466 28.0605 29.4201C27.1042 28.5157 25.6951 28.2814 24.4977 28.8279L20.3875 22.756C21.1834 22.1323 21.7564 21.2679 22.0205 20.2918Z" fill="#7C00ED"/>
</g>
</g>
<defs>
<clipPath id="clip0">
<rect width="32" height="32" fill="white" transform="translate(3 3)"/>
</clipPath>
<clipPath id="clip1">
<rect width="32" height="32" fill="white" transform="translate(1 3)"/>
</clipPath>
</defs>
</svg>
