<svg width="87" height="86" viewBox="0 0 87 86" fill="none" xmlns="http://www.w3.org/2000/svg">
    <path d="M50.2503 0.00779021C50.2503 7.42019 45.0659 13.516 37.5484 13.516C34.5414 13.516 32.921 11.7087 28.0015 11.7087C19.0271 11.7087 11.7238 19.012 11.7238 27.9903C11.7238 36.9685 19.0271 44.2718 28.0015 44.2718C36.9758 44.2718 44.2791 36.9685 44.2791 27.9903C44.2791 21.6412 40.7969 17.7228 39.2116 16.2114C43.5001 15.7986 47.2978 13.7225 49.9777 10.6375C51.5085 12.5773 56.0034 18.6732 56.0034 27.9903C56.0034 43.4344 43.4417 56 28.0015 56C12.5612 56.0039 -0.000488281 43.4383 -0.000488281 27.9942C-0.000488281 12.6474 12.4054 0.1597 27.7093 0L50.2503 0.00779021Z" fill="#7C00ED" fill-opacity="0.04"/>
</svg>
