<svg xmlns="http://www.w3.org/2000/svg" viewBox="0 0 500 322" width="500" height="322" preserveAspectRatio="xMidYMid meet" style="width: 100%; height: 100%; transform: translate3d(0px, 0px, 0px);"><defs><clipPath id="__lottie_element_2"><rect width="500" height="322" x="0" y="0"></rect></clipPath><mask id="__lottie_element_3" mask-type="alpha"><g transform="matrix(1,0,0,1,250,163.75)" opacity="1" style="display: block;"><g opacity="1" transform="matrix(0.9599300026893616,0,0,1,183.1999969482422,-1.8220000267028809)"><path fill="rgb(255,255,255)" fill-opacity="1" d=" M67.69999694824219,-161.67750549316406 C67.69999694824219,-161.67750549316406 67.69999694824219,161.67750549316406 67.69999694824219,161.67750549316406 C67.69999694824219,161.67750549316406 -67.69999694824219,161.67750549316406 -67.69999694824219,161.67750549316406 C-67.69999694824219,161.67750549316406 -67.69999694824219,-161.67750549316406 -67.69999694824219,-161.67750549316406 C-67.69999694824219,-161.67750549316406 67.69999694824219,-161.67750549316406 67.69999694824219,-161.67750549316406z"></path></g></g></mask><clipPath id="__lottie_element_7"><path d="M0,0 L500,0 L500,322 L0,322z"></path></clipPath><clipPath id="__lottie_element_20"><path d="M0,0 L500,0 L500,322 L0,322z"></path></clipPath><clipPath id="__lottie_element_39"><path d="M0,0 L500,0 L500,322 L0,322z"></path></clipPath><clipPath id="__lottie_element_52"><path d="M0,0 L500,0 L500,322 L0,322z"></path></clipPath></defs><g clip-path="url(#__lottie_element_2)"><g transform="matrix(1,0,0,1,250,161)" opacity="1" style="display: block;"><g opacity="1" transform="matrix(1,0,0,1,0.009999999776482582,-0.7710000276565552)"><path fill="rgb(248,244,255)" fill-opacity="1" d=" M250.00999450683594,-151.22950744628906 C250.00999450683594,-151.22950744628906 250.00999450683594,151.22950744628906 250.00999450683594,151.22950744628906 C250.00999450683594,157.3004150390625 245.08090209960938,162.22950744628906 239.00999450683594,162.22950744628906 C239.00999450683594,162.22950744628906 -239.00999450683594,162.22950744628906 -239.00999450683594,162.22950744628906 C-245.08090209960938,162.22950744628906 -250.00999450683594,157.3004150390625 -250.00999450683594,151.22950744628906 C-250.00999450683594,151.22950744628906 -250.00999450683594,-151.22950744628906 -250.00999450683594,-151.22950744628906 C-250.00999450683594,-157.3004150390625 -245.08090209960938,-162.22950744628906 -239.00999450683594,-162.22950744628906 C-239.00999450683594,-162.22950744628906 239.00999450683594,-162.22950744628906 239.00999450683594,-162.22950744628906 C245.08090209960938,-162.22950744628906 250.00999450683594,-157.3004150390625 250.00999450683594,-151.22950744628906z"></path></g></g><g clip-path="url(#__lottie_element_52)" transform="matrix(1,0,0,1,0,3)" opacity="1" style="display: block;"><g transform="matrix(1,0,0,1,15.449996948242188,15.25)" opacity="1" style="display: block;"><g opacity="1" transform="matrix(1,0,0,1,168.75,153.39999389648438)"><path fill="rgb(235,225,252)" fill-opacity="1" d=" M168.3000030517578,150.64999389648438 C168.3000030517578,150.64999389648438 168.3000030517578,-143.35000610351562 168.3000030517578,-143.35000610351562 C168.3000030517578,-143.35000610351562 168.3000030517578,-144.9499969482422 168.3000030517578,-144.9499969482422 C168,-148.14999389648438 166.60000610351562,-150.64999389648438 163.6999969482422,-152.14999389648438 C162.10000610351562,-152.9499969482422 160.5,-153.14999389648438 158.8000030517578,-153.14999389648438 C158.8000030517578,-153.14999389648438 -158.89999389648438,-153.14999389648438 -158.89999389648438,-153.14999389648438 C-158.89999389648438,-153.14999389648438 -160.60000610351562,-153.14999389648438 -160.60000610351562,-153.14999389648438 C-162.3000030517578,-153.0500030517578 -163.89999389648438,-152.5500030517578 -165.3000030517578,-151.4499969482422 C-167.5,-149.64999389648438 -168.5,-147.35000610351562 -168.5,-144.4499969482422 C-168.5,-144.4499969482422 -168.5,150.75100708007812 -168.5,150.75100708007812 C-168.5,150.75100708007812 -168.5,151.9499969482422 -168.5,151.9499969482422 C-168.5,152.35000610351562 -168.39999389648438,152.85000610351562 -168.10000610351562,153.14999389648438 C-168.10000610351562,153.14999389648438 -156.39999389648438,153.14999389648438 -156.39999389648438,153.14999389648438 C-156.39999389648438,153.14999389648438 158.5,153.14999389648438 158.5,153.14999389648438 C158.5,153.14999389648438 167.8000030517578,153.14999389648438 167.8000030517578,153.14999389648438 C168.5,152.5500030517578 168.3000030517578,151.5500030517578 168.3000030517578,150.64999389648438z"></path></g></g><g transform="matrix(0.800000011920929,0,0,0.800000011920929,44.41999816894531,294)" opacity="1" style="display: block;"><g opacity="1" transform="matrix(1,0,0,1,47.849998474121094,15.699999809265137)"><path fill="rgb(253,253,253)" fill-opacity="1" d=" M-47.599998474121094,15.449999809265137 C-47.599998474121094,15.449999809265137 -47.599998474121094,-7.650000095367432 -47.599998474121094,-7.650000095367432 C-47.599998474121094,-12.050000190734863 -44.20000076293945,-15.449999809265137 -39.70000076293945,-15.449999809265137 C-39.70000076293945,-15.449999809265137 39.599998474121094,-15.449999809265137 39.599998474121094,-15.449999809265137 C43.79999923706055,-15.449999809265137 47.400001525878906,-12.050000190734863 47.5,-7.449999809265137 C47.599998474121094,0.25 47.5,7.849999904632568 47.5,15.550000190734863 C15.699999809265137,15.449999809265137 -16,15.449999809265137 -47.599998474121094,15.449999809265137z"></path></g></g><g transform="matrix(0.800000011920929,0,0,0.800000011920929,250.22000122070312,293.8999938964844)" opacity="1" style="display: block;"><g opacity="1" transform="matrix(1,0,0,1,47.849998474121094,15.75)"><path fill="rgb(253,253,253)" fill-opacity="1" d=" M-47.5,15.5 C-47.5,7.900000095367432 -47.400001525878906,0.20000000298023224 -47.5,-7.400000095367432 C-47.599998474121094,-12 -43.400001525878906,-15.5 -39.5,-15.5 C-13.100000381469727,-15.399999618530273 13.300000190734863,-15.5 39.70000076293945,-15.5 C44,-15.5 47.599998474121094,-12 47.599998474121094,-7.699999809265137 C47.599998474121094,-7.699999809265137 47.599998474121094,15.5 47.599998474121094,15.5 C47.599998474121094,15.5 -47.5,15.5 -47.5,15.5z"></path></g></g><g transform="matrix(0.800000011920929,0,0,0.800000011920929,147.3000030517578,293.8999938964844)" opacity="1" style="display: block;"><g opacity="1" transform="matrix(1,0,0,1,47.75,15.75)"><path fill="rgb(253,253,253)" fill-opacity="1" d=" M-47.5,15.5 C-47.5,15.5 -47.5,-7.699999809265137 -47.5,-7.699999809265137 C-47.5,-12 -44,-15.5 -39.79999923706055,-15.5 C-39.79999923706055,-15.5 39.70000076293945,-15.5 39.70000076293945,-15.5 C43.900001525878906,-15.5 47.5,-11.899999618530273 47.5,-7.699999809265137 C47.5,-7.699999809265137 47.5,15.5 47.5,15.5 C47.5,15.5 -47.5,15.5 -47.5,15.5z"></path></g></g><g transform="matrix(1,0,0,1,34.75,55.85000228881836)" opacity="1" style="display: block;"><g opacity="1" transform="matrix(1,0,0,1,150.3000030517578,50.20000076293945)"><path fill="rgb(177,134,252)" fill-opacity="1" d=" M-0.15000000596046448,-49.95000076293945 C-0.15000000596046448,-49.95000076293945 141.5500030517578,-49.95000076293945 141.5500030517578,-49.95000076293945 C144.75,-49.95000076293945 147.0500030517578,-48.75 148.85000610351562,-46.150001525878906 C149.64999389648438,-44.95000076293945 150.0500030517578,-43.54999923706055 150.0500030517578,-42.04999923706055 C150.0500030517578,-42.04999923706055 150.0500030517578,42.04999923706055 150.0500030517578,42.04999923706055 C150.0500030517578,46.45000076293945 146.5500030517578,49.95000076293945 142.14999389648438,49.95000076293945 C142.14999389648438,49.95000076293945 114.05000305175781,49.95000076293945 114.05000305175781,49.95000076293945 C114.05000305175781,49.95000076293945 -141.5500030517578,49.95000076293945 -141.5500030517578,49.95000076293945 C-145.25,49.95000076293945 -147.9499969482422,48.45000076293945 -149.4499969482422,45.04999923706055 C-149.85000610351562,44.25 -150.0500030517578,43.349998474121094 -150.0500030517578,42.349998474121094 C-150.0500030517578,42.349998474121094 -150.0500030517578,-42.349998474121094 -150.0500030517578,-42.349998474121094 C-150.0500030517578,-46.45000076293945 -146.64999389648438,-49.95000076293945 -142.5500030517578,-49.95000076293945 C-142.5500030517578,-49.95000076293945 -127.55000305175781,-49.95000076293945 -127.55000305175781,-49.95000076293945 C-127.55000305175781,-49.95000076293945 -0.15000000596046448,-49.95000076293945 -0.15000000596046448,-49.95000076293945z"></path></g></g><g transform="matrix(0.800000011920929,0,0,0.800000011920929,44.310001373291016,189.20999145507812)" opacity="1" style="display: block;"><g opacity="1" transform="matrix(1,0,0,1,47.79999923706055,47.79999923706055)"><path fill="rgb(253,253,253)" fill-opacity="1" d=" M-0.05000000074505806,47.54999923706055 C-13.25,47.54999923706055 -26.350000381469727,47.45000076293945 -39.54999923706055,47.54999923706055 C-43.849998474121094,47.54999923706055 -47.54999923706055,43.849998474121094 -47.54999923706055,39.650001525878906 C-47.45000076293945,13.25 -47.54999923706055,-13.25 -47.54999923706055,-39.650001525878906 C-47.54999923706055,-43.75 -44.150001525878906,-47.45000076293945 -39.75,-47.45000076293945 C-13.350000381469727,-47.54999923706055 13.149999618530273,-47.45000076293945 39.54999923706055,-47.45000076293945 C43.95000076293945,-47.45000076293945 47.54999923706055,-43.75 47.54999923706055,-39.45000076293945 C47.54999923706055,-39.45000076293945 47.54999923706055,39.75 47.54999923706055,39.75 C47.54999923706055,44.04999923706055 43.95000076293945,47.54999923706055 39.650001525878906,47.54999923706055 C26.350000381469727,47.45000076293945 13.149999618530273,47.54999923706055 -0.05000000074505806,47.54999923706055z"></path></g></g><g transform="matrix(0.800000011920929,0,0,0.800000011920929,250.2100067138672,189.3000030517578)" opacity="1" style="display: block;"><g opacity="1" transform="matrix(1,0,0,1,47.79999923706055,47.75)"><path fill="rgb(253,253,253)" fill-opacity="1" d=" M-0.05000000074505806,47.5 C-0.05000000074505806,47.5 -39.75,47.5 -39.75,47.5 C-43.95000076293945,47.5 -47.54999923706055,43.900001525878906 -47.54999923706055,39.70000076293945 C-47.54999923706055,39.70000076293945 -47.54999923706055,-39.5 -47.54999923706055,-39.5 C-47.54999923706055,-43.900001525878906 -43.849998474121094,-47.5 -39.54999923706055,-47.5 C-39.54999923706055,-47.5 39.54999923706055,-47.5 39.54999923706055,-47.5 C43.95000076293945,-47.5 47.54999923706055,-43.900001525878906 47.54999923706055,-39.5 C47.54999923706055,-39.5 47.54999923706055,39.79999923706055 47.54999923706055,39.79999923706055 C47.54999923706055,43.900001525878906 43.95000076293945,47.5 39.8489990234375,47.5 C39.8489990234375,47.5 -0.05000000074505806,47.5 -0.05000000074505806,47.5z"></path></g></g><g transform="matrix(0.800000011920929,0,0,0.800000011920929,147.30999755859375,189.20999145507812)" opacity="1" style="display: block;"><g opacity="1" transform="matrix(1,0,0,1,47.79999923706055,47.79999923706055)"><path fill="rgb(253,253,253)" fill-opacity="1" d=" M-0.15000000596046448,47.54999923706055 C-13.350000381469727,47.54999923706055 -26.549999237060547,47.45000076293945 -39.75,47.54999923706055 C-43.75,47.54999923706055 -47.54999923706055,43.75 -47.54999923706055,39.650001525878906 C-47.45000076293945,13.25 -47.54999923706055,-13.149999618530273 -47.54999923706055,-39.54999923706055 C-47.54999923706055,-43.95000076293945 -43.95000076293945,-47.54999923706055 -39.54999923706055,-47.54999923706055 C-39.54999923706055,-47.54999923706055 39.45000076293945,-47.54999923706055 39.45000076293945,-47.54999923706055 C43.849998474121094,-47.54999923706055 47.54999923706055,-43.95000076293945 47.54999923706055,-39.45000076293945 C47.54999923706055,-39.45000076293945 47.54999923706055,39.650001525878906 47.54999923706055,39.650001525878906 C47.54999923706055,44.04999923706055 43.54999923706055,47.54999923706055 39.650001525878906,47.54999923706055 C26.350000381469727,47.45000076293945 13.050000190734863,47.54999923706055 -0.15000000596046448,47.54999923706055z"></path></g></g><g transform="matrix(1,0,0,1,302.75,31.75)" opacity="1" style="display: block;"><g opacity="1" transform="matrix(1,0,0,1,16.299999237060547,4.25)"><path fill="rgb(96,96,96)" fill-opacity="1" d=" M-0.05000000074505806,4 C-0.05000000074505806,4 -11.949999809265137,4 -11.949999809265137,4 C-14.350000381469727,4 -16.049999237060547,2.4000000953674316 -16.049999237060547,0.10000000149011612 C-16.049999237060547,-2.299999952316284 -14.550000190734863,-4 -12.050000190734863,-4 C-12.050000190734863,-4 11.949999809265137,-4 11.949999809265137,-4 C14.350000381469727,-4 16.049999237060547,-2.0999999046325684 15.949999809265137,0.10000000149011612 C15.850000381469727,2.4000000953674316 14.149999618530273,4 11.75,4 C11.75,4 -0.05000000074505806,4 -0.05000000074505806,4z"></path></g></g></g><g clip-path="url(#__lottie_element_39)" transform="matrix(1,0,0,1,0,0)" opacity="1" style="display: block;"><g transform="matrix(1,0,0,1,34.849998474121094,31.75)" opacity="1" style="display: block;"><g opacity="1" transform="matrix(1,0,0,1,4.199999809265137,4.25)"><path fill="rgb(234,70,58)" fill-opacity="1" d=" M3.950000047683716,0 C3.950000047683716,2.299999952316284 2.25,4 0.05000000074505806,4 C-2.25,4 -3.950000047683716,2.299999952316284 -3.950000047683716,0.10000000149011612 C-3.950000047683716,-2.200000047683716 -2.25,-3.9000000953674316 -0.05000000074505806,-4 C2.1500000953674316,-4 3.950000047683716,-2.299999952316284 3.950000047683716,0z"></path></g></g><g transform="matrix(1,0,0,1,50.75,31.75)" opacity="1" style="display: block;"><g opacity="1" transform="matrix(1,0,0,1,4.349999904632568,4.25)"><path fill="rgb(251,210,67)" fill-opacity="1" d=" M-4,-0.10000000149011612 C-4,-2.4000000953674316 -2.299999952316284,-4 0,-4 C2.299999952316284,-4 4.099999904632568,-2.200000047683716 4,0.10000000149011612 C3.9000000953674316,2.299999952316284 2.200000047683716,4 -0.10000000149011612,4 C-2.5,4 -4.099999904632568,2.299999952316284 -4,-0.10000000149011612z"></path></g></g><g transform="matrix(1,0,0,1,66.75,31.75)" opacity="1" style="display: block;"><g opacity="1" transform="matrix(1,0,0,1,4.25,4.25)"><path fill="rgb(82,226,141)" fill-opacity="1" d=" M4,0 C4,2.299999952316284 2.299999952316284,4 0,4 C-2.299999952316284,4 -4,2.200000047683716 -4,0 C-4,-2.200000047683716 -2.200000047683716,-4 0.10000000149011612,-4 C2.4000000953674316,-4 4,-2.299999952316284 4,0z"></path></g></g></g><g transform="matrix(1,0,0,1,367.8489990234375,-0.4499969482421875)" opacity="1" style="display: block;"><g opacity="1" transform="matrix(1,0,0,1,66.19999694824219,161.35000610351562)"><path fill="rgb(111,42,249)" fill-opacity="1" d=" M65.85099792480469,112.30000305175781 C65.85099792480469,112.30000305175781 65.85099792480469,112.30000305175781 65.85099792480469,112.30000305175781 C65.85099792480469,112.30000305175781 65.85099792480469,110.9000015258789 65.85099792480469,110.9000015258789 C65.85099792480469,110.9000015258789 65.85099792480469,67.1989974975586 65.85099792480469,67.1989974975586 C65.85099792480469,67.1989974975586 65.85099792480469,60.29999923706055 65.85099792480469,60.29999923706055 C65.85099792480469,60.29999923706055 65.85099792480469,57.900001525878906 65.85099792480469,57.900001525878906 C65.85099792480469,57.900001525878906 65.85099792480469,38.69900131225586 65.85099792480469,38.69900131225586 C65.85099792480469,38.69900131225586 65.85099792480469,37 65.85099792480469,37 C65.85099792480469,37 65.85099792480469,17.100000381469727 65.85099792480469,17.100000381469727 C65.85099792480469,17.100000381469727 65.85099792480469,9.300000190734863 65.85099792480469,9.300000190734863 C65.85099792480469,9.300000190734863 65.85099792480469,-16.799999237060547 65.85099792480469,-16.799999237060547 C65.85099792480469,-16.799999237060547 65.85099792480469,-38.599998474121094 65.85099792480469,-38.599998474121094 C65.85099792480469,-41.70000076293945 65.85099792480469,-44.79999923706055 65.95099639892578,-48 C65.95099639892578,-48 65.95099639892578,-50.5 65.95099639892578,-50.5 C65.95099639892578,-50.5 65.95099639892578,-69.4000015258789 65.95099639892578,-69.4000015258789 C65.95099639892578,-69.4000015258789 65.95099639892578,-70.69999694824219 65.95099639892578,-70.69999694824219 C65.95099639892578,-70.69999694824219 65.95099639892578,-122.19999694824219 65.95099639892578,-122.19999694824219 C65.95099639892578,-122.19999694824219 65.95099639892578,-123.5999984741211 65.95099639892578,-123.5999984741211 C65.95099639892578,-123.5999984741211 66.05000305175781,-123.5999984741211 66.05000305175781,-123.5999984741211 C66.25,-124 66.1510009765625,-124.5 66.1510009765625,-124.9000015258789 C66.1510009765625,-124.9000015258789 66.1510009765625,-153.5 66.1510009765625,-153.5 C66.1510009765625,-154.5 66.1510009765625,-155.60000610351562 65.6510009765625,-156.5 C64.35099792480469,-159.1999969482422 62.35100173950195,-160.8000030517578 59.35100173950195,-161.10000610351562 C59.35100173950195,-161.10000610351562 59.1510009765625,-161.10000610351562 59.1510009765625,-161.10000610351562 C58.6510009765625,-160.89999389648438 58.1510009765625,-161 57.6510009765625,-161 C57.6510009765625,-161 -64.3489990234375,-161 -64.3489990234375,-161 C-65.75,-161 -65.75,-161 -65.75,-159.60000610351562 C-65.75,-159.60000610351562 -65.75,-124.9000015258789 -65.75,-124.9000015258789 C-65.75,-124.5 -65.8489990234375,-124 -65.64900207519531,-123.5999984741211 C-65.64900207519531,-123.5999984741211 -65.64900207519531,-92 -65.64900207519531,-92 C-65.64900207519531,-92 -65.64900207519531,-69.4000015258789 -65.64900207519531,-69.4000015258789 C-65.64900207519531,-69.4000015258789 -65.64900207519531,-16.799999237060547 -65.64900207519531,-16.799999237060547 C-65.64900207519531,-16.799999237060547 -65.64900207519531,26.600000381469727 -65.64900207519531,26.600000381469727 C-65.64900207519531,26.600000381469727 -65.64900207519531,69.5999984741211 -65.64900207519531,69.5999984741211 C-65.64900207519531,69.5999984741211 -65.64900207519531,102.1989974975586 -65.64900207519531,102.1989974975586 C-65.64900207519531,102.1989974975586 -65.64900207519531,133.8000030517578 -65.64900207519531,133.8000030517578 C-65.64900207519531,133.8000030517578 -65.75,133.8000030517578 -65.75,133.8000030517578 C-65.8489990234375,134 -65.8489990234375,134.3000030517578 -65.8489990234375,134.5 C-65.8489990234375,134.5 -65.8489990234375,160.10000610351562 -65.8489990234375,160.10000610351562 C-65.8489990234375,160.39999389648438 -65.94999694824219,160.69900512695312 -65.75,160.89999389648438 C-65.75,160.89999389648438 -57.3489990234375,160.89999389648438 -57.3489990234375,160.89999389648438 C-57.3489990234375,160.89999389648438 53.25,160.89999389648438 53.25,160.89999389648438 C53.25,160.89999389648438 59.54999923706055,160.89999389648438 59.54999923706055,160.89999389648438 C63.85100173950195,160.10000610351562 66.1510009765625,157.39999389648438 66.1510009765625,153.3000030517578 C66.1510009765625,153.3000030517578 66.1510009765625,113.5999984741211 66.1510009765625,113.5999984741211 C65.95099639892578,113.30000305175781 66.05000305175781,112.80000305175781 65.85099792480469,112.30000305175781z"></path></g></g><g clip-path="url(#__lottie_element_20)" transform="matrix(1,0,0,1,0,0)" opacity="1" style="display: block;"><g transform="matrix(1,0,0,1,383.3500061035156,15.749999046325684)" opacity="1" style="display: block;"><g opacity="1" transform="matrix(1,0,0,1,40.599998474121094,4.300000190734863)"><path fill="rgb(253,253,253)" fill-opacity="1" d=" M0.05000000074505806,-4.050000190734863 C0.05000000074505806,-4.050000190734863 36.04999923706055,-4.050000190734863 36.04999923706055,-4.050000190734863 C38.04999923706055,-4.050000190734863 39.650001525878906,-2.75 39.95000076293945,-0.8500000238418579 C40.349998474121094,1.0499999523162842 39.349998474121094,2.8499999046325684 37.54999923706055,3.6500000953674316 C36.849998474121094,3.950000047683716 36.150001525878906,4.050000190734863 35.45000076293945,4.050000190734863 C35.45000076293945,4.050000190734863 -35.54999923706055,4.050000190734863 -35.54999923706055,4.050000190734863 C-37.75,4.050000190734863 -39.150001525878906,3.049999952316284 -39.75,1.350000023841858 C-40.349998474121094,-0.25 -39.849998474121094,-1.9500000476837158 -38.54999923706055,-3.1500000953674316 C-37.75,-3.8499999046325684 -36.75,-4.050000190734863 -35.650001525878906,-4.050000190734863 C-35.650001525878906,-4.050000190734863 0.05000000074505806,-4.050000190734863 0.05000000074505806,-4.050000190734863z"></path></g></g><g transform="matrix(1,0,0,1,471.75,18.649999618530273)" opacity="1" style="display: block;"><g opacity="1" transform="matrix(1,0,0,1,6.25,0.8999999761581421)"><path fill="rgb(241,236,253)" fill-opacity="1" d=" M-0.10000000149011612,0.550000011920929 C-0.10000000149011612,0.550000011920929 -5.099999904632568,0.550000011920929 -5.099999904632568,0.550000011920929 C-5.5,0.550000011920929 -6,0.550000011920929 -6,0.05000000074505806 C-6,-0.550000011920929 -5.5,-0.550000011920929 -5,-0.550000011920929 C-5,-0.550000011920929 5,-0.550000011920929 5,-0.550000011920929 C5.400000095367432,-0.550000011920929 6,-0.6499999761581421 6,0.05000000074505806 C6,0.6499999761581421 5.400000095367432,0.550000011920929 5,0.550000011920929 C5,0.550000011920929 -0.10000000149011612,0.550000011920929 -0.10000000149011612,0.550000011920929z"></path></g></g><g transform="matrix(1,0,0,1,471.75,21.649999618530273)" opacity="1" style="display: block;"><g opacity="1" transform="matrix(1,0,0,1,6.25,0.8500000238418579)"><path fill="rgb(253,253,253)" fill-opacity="1" d=" M-0.10000000149011612,0.5 C-0.10000000149011612,0.5 -5.099999904632568,0.5 -5.099999904632568,0.5 C-5.5,0.5 -6,0.6000000238418579 -6,0 C-6,-0.6000000238418579 -5.5,-0.5 -5.099999904632568,-0.5 C-5.099999904632568,-0.5 5.098999977111816,-0.5 5.098999977111816,-0.5 C5.5,-0.5 6,-0.6000000238418579 6,0 C6,0.6000000238418579 5.5,0.5 5.098999977111816,0.5 C5.098999977111816,0.5 -0.10000000149011612,0.5 -0.10000000149011612,0.5z"></path></g></g><g transform="matrix(1,0,0,1,471.6499938964844,15.649999618530273)" opacity="1" style="display: block;"><g opacity="1" transform="matrix(1,0,0,1,6.25,0.8500000238418579)"><path fill="rgb(253,253,253)" fill-opacity="1" d=" M0,-0.5 C0,-0.5 5.099999904632568,-0.5 5.099999904632568,-0.5 C5.5,-0.5 6,-0.6000000238418579 6,0 C6,0.6000000238418579 5.5,0.5 5.099999904632568,0.5 C5.099999904632568,0.5 -5.10099983215332,0.5 -5.10099983215332,0.5 C-5.5,0.5 -6,0.6000000238418579 -6,0 C-6,-0.6000000238418579 -5.5,-0.5 -5.10099983215332,-0.5 C-5.10099983215332,-0.5 0,-0.5 0,-0.5z"></path></g></g></g><g mask="url(#__lottie_element_3)" style="display: block;"><g clip-path="url(#__lottie_element_7)" transform="matrix(1,0,0,1,0,0)" opacity="1"><g transform="matrix(1,0,0,1,383.1510009765625,255.34999084472656)" opacity="1" style="display: block;"><g opacity="1" transform="matrix(1,0,0,1,50.849998474121094,33.45000076293945)"><path fill="rgb(253,253,253)" fill-opacity="1" d=" M50.099998474121094,33.20000076293945 C50.099998474121094,33.20000076293945 41.70000076293945,33.20000076293945 41.70000076293945,33.20000076293945 C41.20000076293945,32.79999923706055 40.999000549316406,32.20000076293945 40.79899978637695,31.700000762939453 C39.400001525878906,29.100000381469727 37.20000076293945,27.799999237060547 34.29899978637695,27.600000381469727 C34.29899978637695,27.600000381469727 33.099998474121094,27.600000381469727 33.099998474121094,27.600000381469727 C33.099998474121094,27.600000381469727 -33.20100021362305,27.600000381469727 -33.20100021362305,27.600000381469727 C-36.79999923706055,27.600000381469727 -39.500999450683594,29 -41.099998474121094,32.29999923706055 C-41.29999923706055,32.70000076293945 -41.5,33 -41.900001525878906,33.20000076293945 C-41.900001525878906,33.20000076293945 -50.099998474121094,33.20000076293945 -50.099998474121094,33.20000076293945 C-50.500999450683594,32.79999923706055 -50.500999450683594,32.29999923706055 -50.500999450683594,31.899999618530273 C-50.500999450683594,23.299999237060547 -50.599998474121094,14.699999809265137 -50.500999450683594,6.099999904632568 C-50.500999450683594,-4.400000095367432 -50.599998474121094,-15 -50.500999450683594,-25.5 C-50.000999450683594,-30.100000381469727 -46.599998474121094,-33.20000076293945 -41.79999923706055,-33.20000076293945 C-41.79999923706055,-33.20000076293945 38.79899978637695,-33.20000076293945 38.79899978637695,-33.20000076293945 C38.79899978637695,-33.20000076293945 41.79899978637695,-33.20000076293945 41.79899978637695,-33.20000076293945 C46.499000549316406,-33.099998474121094 50.0989990234375,-29.600000381469727 50.20000076293945,-24.899999618530273 C50.29899978637695,-21.700000762939453 50.20000076293945,-18.600000381469727 50.20000076293945,-15.399999618530273 C50.29899978637695,-14.800000190734863 50.20000076293945,-14.100000381469727 50.20000076293945,-13.5 C50.20000076293945,-13.5 50.20000076293945,31 50.20000076293945,31 C50.400001525878906,31.700000762939453 50.599998474121094,32.5 50.099998474121094,33.20000076293945z"></path></g><g opacity="1" transform="matrix(1,0,0,1,50.79999923706055,63.650001525878906)"><path fill="rgb(247,243,253)" fill-opacity="1" d=" M-41.75,3 C-40.75,-0.10000000149011612 -38.75,-2.0999999046325684 -35.54999923706055,-2.9000000953674316 C-35.150001525878906,-3 -34.650001525878906,-3 -34.25,-3 C-34.25,-3 34.25,-3 34.25,-3 C37.849998474121094,-3 41.04999923706055,-0.4000000059604645 41.75,3 C41.75,3 -41.75,3 -41.75,3z"></path></g><g opacity="1" transform="matrix(1,0,0,1,50.999000549316406,18.600000381469727)"><path fill="rgb(177,134,253)" fill-opacity="1" d=" M-0.15000000596046448,-5.949999809265137 C-0.15000000596046448,-5.949999809265137 35.75,-5.949999809265137 35.75,-5.949999809265137 C38.75,-5.949999809265137 41.45000076293945,-3.75 41.849998474121094,-1.0499999523162842 C42.25,2.3499999046325684 40.54999923706055,5.050000190734863 37.349998474121094,5.849999904632568 C36.849998474121094,5.949999809265137 36.45000076293945,5.949999809265137 35.95000076293945,5.949999809265137 C35.95000076293945,5.949999809265137 -36.04999923706055,5.949999809265137 -36.04999923706055,5.949999809265137 C-39.54999923706055,5.949999809265137 -42.25,3.25 -42.150001525878906,-0.05000000074505806 C-42.150001525878906,-3.450000047683716 -39.45000076293945,-5.949999809265137 -36.04999923706055,-5.949999809265137 C-36.04999923706055,-5.949999809265137 -0.15000000596046448,-5.949999809265137 -0.15000000596046448,-5.949999809265137z"></path></g><g opacity="1" transform="matrix(1,0,0,1,44.5989990234375,36.70100021362305)"><path fill="rgb(236,226,253)" fill-opacity="1" d=" M0.25,4.048999786376953 C0.25,4.048999786376953 -31.350000381469727,4.048999786376953 -31.350000381469727,4.048999786376953 C-32.95000076293945,4.048999786376953 -34.349998474121094,3.4489998817443848 -35.25,2.0490000247955322 C-37.04999923706055,-0.7509999871253967 -34.849998474121094,-3.8499999046325684 -31.850000381469727,-4.150000095367432 C-31.850000381469727,-4.150000095367432 -31.149999618530273,-4.150000095367432 -31.149999618530273,-4.150000095367432 C-31.149999618530273,-4.150000095367432 31.649999618530273,-4.150000095367432 31.649999618530273,-4.150000095367432 C33.349998474121094,-4.150000095367432 34.849998474121094,-3.6500000953674316 35.650001525878906,-2.1500000953674316 C37.04999923706055,0.4490000009536743 35.95000076293945,3.9489998817443848 31.950000762939453,4.048999786376953 C24.75,4.150000095367432 17.649999618530273,4.048999786376953 10.449999809265137,4.048999786376953 C10.449999809265137,4.048999786376953 0.25,4.048999786376953 0.25,4.048999786376953z"></path></g><g opacity="1" transform="matrix(1,0,0,1,30.599000930786133,48.650001525878906)"><path fill="rgb(236,226,253)" fill-opacity="1" d=" M-0.3490000069141388,4.099999904632568 C-0.3490000069141388,4.099999904632568 -18.451000213623047,4.099999904632568 -18.451000213623047,4.099999904632568 C-20.850000381469727,4.099999904632568 -22.749000549316406,2.4010000228881836 -22.849000930786133,0.20100000500679016 C-22.950000762939453,-2.200000047683716 -21.048999786376953,-4.099999904632568 -18.548999786376953,-4.099999904632568 C-18.548999786376953,-4.099999904632568 -6.451000213623047,-4.099999904632568 -6.451000213623047,-4.099999904632568 C-6.451000213623047,-4.099999904632568 17.650999069213867,-4.099999904632568 17.650999069213867,-4.099999904632568 C19.750999450683594,-4.099999904632568 21.250999450683594,-3.0989999771118164 21.951000213623047,-1.2990000247955322 C22.951000213623047,1.2999999523162842 20.849000930786133,3.999000072479248 17.849000930786133,3.999000072479248 C11.848999977111816,4.098999977111816 5.750999927520752,4.099999904632568 -0.3490000069141388,4.099999904632568z"></path></g></g><g transform="matrix(1,0,0,1,383.75,39.55000305175781)" opacity="1" style="display: block;"><g opacity="1" transform="matrix(1,0,0,1,50.400001525878906,50.349998474121094)"><path fill="rgb(253,253,253)" fill-opacity="1" d=" M49.95000076293945,1.7000000476837158 C49.95000076293945,1.7000000476837158 49.95000076293945,12.899999618530273 49.95000076293945,12.899999618530273 C49.95000076293945,12.899999618530273 49.95000076293945,32.400001525878906 49.95000076293945,32.400001525878906 C49.95000076293945,35.5 49.849998474121094,38.599998474121094 49.95000076293945,41.599998474121094 C50.150001525878906,46.29999923706055 46.150001525878906,50.099998474121094 41.55099868774414,50.099998474121094 C13.850000381469727,50 -13.949000358581543,50 -41.650001525878906,50.099998474121094 C-44.94900131225586,50.099998474121094 -47.44900131225586,48.79999923706055 -49.150001525878906,46 C-49.849998474121094,44.79999923706055 -50.04999923706055,43.400001525878906 -50.04999923706055,42 C-50.04999923706055,42 -50.04999923706055,3 -50.04999923706055,3 C-50.04999923706055,3 -50.04999923706055,1.600000023841858 -50.04999923706055,1.600000023841858 C-50.04999923706055,1.600000023841858 -50.04999923706055,-21 -50.04999923706055,-21 C-50.04999923706055,-28 -49.94900131225586,-34.900001525878906 -50.04999923706055,-41.900001525878906 C-50.150001525878906,-46.400001525878906 -46.749000549316406,-50.099998474121094 -41.749000549316406,-50.099998474121094 C-13.949000358581543,-50 13.949999809265137,-50.099998474121094 41.750999450683594,-50.099998474121094 C46.650001525878906,-50.099998474121094 50.05099868774414,-46.70000076293945 50.05099868774414,-41.79999923706055 C50.05099868774414,-41.79999923706055 50.05099868774414,0.10000000149011612 50.05099868774414,0.10000000149011612 C49.849998474121094,0.800000011920929 49.95000076293945,1.2000000476837158 49.95000076293945,1.7000000476837158z"></path></g><g opacity="1" transform="matrix(1,0,0,1,50.349998474121094,74.5)"><path fill="rgb(247,243,253)" fill-opacity="1" d=" M-0.10000000149011612,-14.050000190734863 C-0.10000000149011612,-14.050000190734863 33.900001525878906,-14.050000190734863 33.900001525878906,-14.050000190734863 C38.20000076293945,-14.050000190734863 42.099998474121094,-10.350000381469727 41.900001525878906,-6.050000190734863 C41.70000076293945,-1.9500000476837158 41.900001525878906,2.1500000953674316 41.900001525878906,6.349999904632568 C41.900001525878906,9.949999809265137 39.20000076293945,13.25 35.599998474121094,13.850000381469727 C34.70000076293945,14.050000190734863 33.70000076293945,14.050000190734863 32.79999923706055,14.050000190734863 C32.79999923706055,14.050000190734863 -33.400001525878906,14.050000190734863 -33.400001525878906,14.050000190734863 C-36.599998474121094,14.050000190734863 -39.099998474121094,12.75 -40.79999923706055,10.050000190734863 C-41.70000076293945,8.75 -41.900001525878906,7.25 -42,5.75 C-42.099998474121094,1.850000023841858 -42,-2.049999952316284 -42,-6.050000190734863 C-42,-10.550000190734863 -38.400001525878906,-14.050000190734863 -33.900001525878906,-14.050000190734863 C-33.900001525878906,-14.050000190734863 -0.10000000149011612,-14.050000190734863 -0.10000000149011612,-14.050000190734863z"></path></g><g opacity="1" transform="matrix(1,0,0,1,50.349998474121094,18.450000762939453)"><path fill="rgb(177,134,253)" fill-opacity="1" d=" M-0.10000000149011612,-6 C-0.10000000149011612,-6 35.79999923706055,-6 35.79999923706055,-6 C38.79999923706055,-6 41.5,-3.799999952316284 41.79999923706055,-1 C42.20000076293945,2.4000000953674316 40.29999923706055,5.199999809265137 37.099998474121094,5.900000095367432 C36.70000076293945,6 36.20000076293945,6 35.79999923706055,6 C35.79999923706055,6 -36,6 -36,6 C-39.5,6 -42.20000076293945,3.4000000953674316 -42.20000076293945,0 C-42.20000076293945,-3.4000000953674316 -39.5,-6 -35.900001525878906,-6 C-35.900001525878906,-6 -0.10000000149011612,-6 -0.10000000149011612,-6z"></path></g><g opacity="1" transform="matrix(1,0,0,1,44.25,36.599998474121094)"><path fill="rgb(236,226,253)" fill-opacity="1" d=" M0,3.950000047683716 C0,3.950000047683716 -31.600000381469727,3.950000047683716 -31.600000381469727,3.950000047683716 C-33.70000076293945,3.950000047683716 -35.20000076293945,2.950000047683716 -35.900001525878906,1.149999976158142 C-36.79999923706055,-1.25 -34.900001525878906,-3.950000047683716 -32.099998474121094,-4.150000095367432 C-32.099998474121094,-4.150000095367432 -31.399999618530273,-4.150000095367432 -31.399999618530273,-4.150000095367432 C-31.399999618530273,-4.150000095367432 31.399999618530273,-4.150000095367432 31.399999618530273,-4.150000095367432 C33.099998474121094,-4.150000095367432 34.599998474121094,-3.6500000953674316 35.400001525878906,-2.049999952316284 C36.79999923706055,0.6499999761581421 35.400001525878906,3.950000047683716 31.600000381469727,4.050000190734863 C25.100000381469727,4.150000095367432 18.600000381469727,4.050000190734863 12.199999809265137,4.050000190734863 C8.199999809265137,3.950000047683716 4.099999904632568,3.950000047683716 0,3.950000047683716z"></path></g><g opacity="1" transform="matrix(1,0,0,1,29.701000213623047,48.54999923706055)"><path fill="rgb(236,226,253)" fill-opacity="1" d=" M-0.05000000074505806,4 C-0.05000000074505806,4 -18.049999237060547,4 -18.049999237060547,4 C-21.25,4 -23.25,1.2000000476837158 -22.25,-1.5 C-21.650999069213867,-3.0999999046325684 -20.049999237060547,-4.099999904632568 -18.049999237060547,-4.099999904632568 C-18.049999237060547,-4.099999904632568 5.550000190734863,-4.099999904632568 5.550000190734863,-4.099999904632568 C5.550000190734863,-4.099999904632568 18.14900016784668,-4.099999904632568 18.14900016784668,-4.099999904632568 C20.049999237060547,-4.099999904632568 21.549999237060547,-3.0999999046325684 22.25,-1.2999999523162842 C23.25,1.2999999523162842 21.14900016784668,4.099999904632568 18.14900016784668,4.099999904632568 C12.14900016784668,4 6.050000190734863,4 -0.05000000074505806,4z"></path></g></g><g transform="matrix(1,0,0,1,383.5500183105469,147.75)" opacity="1" style="display: block;"><g opacity="1" transform="matrix(1,0,0,1,50.400001525878906,50.25)"><path fill="rgb(253,253,253)" fill-opacity="1" d=" M50.150001525878906,-20 C50.150001525878906,-20 50.150001525878906,-19.299999237060547 50.150001525878906,-19.299999237060547 C50.150001525878906,-19.299999237060547 50.150001525878906,22.5 50.150001525878906,22.5 C50.150001525878906,22.5 50.150001525878906,23.200000762939453 50.150001525878906,23.200000762939453 C50.150001525878906,23.200000762939453 50.150001525878906,41.400001525878906 50.150001525878906,41.400001525878906 C50.150001525878906,46.70000076293945 46.750999450683594,50 41.54999923706055,50 C41.54999923706055,50 -41.45000076293945,50 -41.45000076293945,50 C-46.650001525878906,50 -50.150001525878906,45.900001525878906 -49.95000076293945,41.5 C-49.749000549316406,38.5 -49.95000076293945,35.5 -49.95000076293945,32.5 C-49.95000076293945,32.5 -49.95000076293945,22.299999237060547 -49.95000076293945,22.299999237060547 C-49.95000076293945,22.299999237060547 -49.95000076293945,-9.199999809265137 -49.95000076293945,-9.199999809265137 C-49.95000076293945,-9.199999809265137 -49.95000076293945,-10.5 -49.95000076293945,-10.5 C-49.95000076293945,-10.5 -49.95000076293945,-20.200000762939453 -49.95000076293945,-20.200000762939453 C-49.95000076293945,-20.200000762939453 -49.95000076293945,-42.099998474121094 -49.95000076293945,-42.099998474121094 C-49.95000076293945,-46.5 -46.45000076293945,-50 -42.04899978637695,-50 C-42.04899978637695,-50 42.04999923706055,-50 42.04999923706055,-50 C46.54999923706055,-50 50.04999923706055,-46.5 50.150001525878906,-41.900001525878906 C50.150001525878906,-41.900001525878906 50.150001525878906,-21.399999618530273 50.150001525878906,-21.399999618530273 C50.04999923706055,-21 50.150001525878906,-20.5 50.150001525878906,-20z"></path></g><g opacity="1" transform="matrix(1,0,0,1,50.5,74.3499984741211)"><path fill="rgb(247,243,253)" fill-opacity="1" d=" M-0.14900000393390656,-14.100000381469727 C-0.14900000393390656,-14.100000381469727 33.95100021362305,-14.100000381469727 33.95100021362305,-14.100000381469727 C38.25,-14.100000381469727 42.04999923706055,-10.399999618530273 41.95100021362305,-6.099999904632568 C41.85100173950195,-1.899999976158142 41.95100021362305,2.200000047683716 41.95100021362305,6.400000095367432 C41.95100021362305,9.899999618530273 39.25,13.199999809265137 35.75,13.800000190734863 C34.85100173950195,14 33.85100173950195,14.100000381469727 32.95100021362305,14.100000381469727 C32.95100021362305,14.100000381469727 -33.3489990234375,14.100000381469727 -33.3489990234375,14.100000381469727 C-36.54899978637695,14.100000381469727 -39.14899826049805,12.800000190734863 -40.8489990234375,10.100000381469727 C-41.64899826049805,8.800000190734863 -41.95100021362305,7.400000095367432 -41.95100021362305,5.900000095367432 C-42.04999923706055,2 -42.04999923706055,-1.899999976158142 -41.95100021362305,-5.900000095367432 C-41.849998474121094,-10.5 -38.54899978637695,-14 -33.8489990234375,-14 C-22.75,-14.100000381469727 -11.449999809265137,-14.100000381469727 -0.14900000393390656,-14.100000381469727z"></path></g><g opacity="1" transform="matrix(1,0,0,1,50.29999923706055,18.25)"><path fill="rgb(177,134,253)" fill-opacity="1" d=" M0.15000000596046448,6 C0.15000000596046448,6 -35.849998474121094,6 -35.849998474121094,6 C-39.150001525878906,6 -41.650001525878906,3.5999999046325684 -41.95000076293945,0.30000001192092896 C-42.150001525878906,-2.5 -39.95000076293945,-5.300000190734863 -37.04999923706055,-5.900000095367432 C-36.650001525878906,-6 -36.25,-6 -35.849998474121094,-6 C-35.849998474121094,-6 36.150001525878906,-6 36.150001525878906,-6 C39.54999923706055,-6 42.150001525878906,-3.4000000953674316 42.04999923706055,0 C42.04999923706055,3.4000000953674316 39.45000076293945,6 36.04999923706055,6 C36.04999923706055,6 0.15000000596046448,6 0.15000000596046448,6z"></path></g><g opacity="1" transform="matrix(1,0,0,1,44.54999923706055,48.400001525878906)"><path fill="rgb(236,226,253)" fill-opacity="1" d=" M-0.19900000095367432,3.950000047683716 C-0.19900000095367432,3.950000047683716 -31.600000381469727,3.950000047683716 -31.600000381469727,3.950000047683716 C-33.70000076293945,3.950000047683716 -35.20000076293945,2.950000047683716 -35.900001525878906,1.149999976158142 C-36.80099868774414,-1.2489999532699585 -34.900001525878906,-3.9489998817443848 -32.099998474121094,-4.150000095367432 C-32.099998474121094,-4.150000095367432 -31.399999618530273,-4.150000095367432 -31.399999618530273,-4.150000095367432 C-31.399999618530273,-4.150000095367432 31.399999618530273,-4.150000095367432 31.399999618530273,-4.150000095367432 C33.099998474121094,-4.150000095367432 34.599998474121094,-3.6500000953674316 35.400001525878906,-2.049999952316284 C36.79999923706055,0.6499999761581421 35.400001525878906,3.950000047683716 31.600000381469727,4.051000118255615 C24.999000549316406,4.150000095367432 18.400999069213867,4.051000118255615 11.800999641418457,4.051000118255615 C7.801000118255615,3.950000047683716 3.8010001182556152,3.950000047683716 -0.19900000095367432,3.950000047683716z"></path></g><g opacity="1" transform="matrix(1,0,0,1,30.350000381469727,36.29999923706055)"><path fill="rgb(236,226,253)" fill-opacity="1" d=" M-0.4000000059604645,4.050000190734863 C-0.4000000059604645,4.050000190734863 -18.5,4.050000190734863 -18.5,4.050000190734863 C-20.899999618530273,4.050000190734863 -22.799999237060547,2.3510000705718994 -22.899999618530273,0.25 C-23,-2.1489999294281006 -21.100000381469727,-4.050000190734863 -18.600000381469727,-4.050000190734863 C-18.600000381469727,-4.050000190734863 -7.400000095367432,-4.050000190734863 -7.400000095367432,-4.050000190734863 C-7.400000095367432,-4.050000190734863 17.799999237060547,-4.050000190734863 17.799999237060547,-4.050000190734863 C19.799999237060547,-4.050000190734863 21.299999237060547,-3.049999952316284 22,-1.25 C23,1.3509999513626099 20.899999618530273,4.050000190734863 17.899999618530273,4.050000190734863 C17.899999618530273,4.050000190734863 -0.4000000059604645,4.050000190734863 -0.4000000059604645,4.050000190734863z"></path></g></g></g></g></g></svg>